<svg width="16" height="20" viewBox="0 0 16 20"  xmlns="http://www.w3.org/2000/svg">
<path d="M8 14.8722C6.68571 14.8722 5.45371 15.0663 4.304 15.4544C3.15352 15.8433 2.09981 16.3896 1.14286 17.0933V18.2044C1.14286 18.3896 1.20876 18.55 1.34057 18.6856C1.47238 18.8211 1.63352 18.8889 1.824 18.8889H14.1543C14.3592 18.8889 14.5276 18.8248 14.6594 18.6967C14.7912 18.5685 14.8571 18.4044 14.8571 18.2044V17.0933C13.8857 16.3896 12.8286 15.8433 11.6857 15.4544C10.5429 15.0656 9.31428 14.8715 8 14.8722ZM1.84686 20C1.33486 20 0.899048 19.8252 0.539429 19.4756C0.17981 19.1259 0 18.7026 0 18.2056V1.79444C0 1.28333 0.176381 0.856667 0.529143 0.514445C0.881904 0.172222 1.32114 0.000740741 1.84686 0H14.1543C14.68 0 15.1192 0.171482 15.472 0.514445C15.8248 0.857408 16.0008 1.28444 16 1.79556V18.2056C16 18.7019 15.8202 19.1252 15.4606 19.4756C15.101 19.8252 14.6655 20 14.1543 20H1.84686ZM8 12.3078C8.95848 12.3078 9.76952 11.9852 10.4331 11.34C11.0968 10.6948 11.4286 9.9063 11.4286 8.97444C11.4286 8.04259 11.0968 7.25407 10.4331 6.60889C9.76952 5.9637 8.95848 5.64111 8 5.64111C7.04152 5.64111 6.23048 5.9637 5.56686 6.60889C4.90324 7.25407 4.57143 8.04259 4.57143 8.97444C4.57143 9.9063 4.90324 10.6948 5.56686 11.34C6.23048 11.9852 7.04152 12.3078 8 12.3078Z" fill="currentColor"/>
</svg>
