<svg width="17" height="20" viewBox="0 0 17 20" fill="none" xmlns="http://www.w3.org/2000/svg">
<path d="M2.26667 1.13333H11.3333C11.6339 1.13333 11.9222 1.25274 12.1347 1.46528C12.3473 1.67782 12.4667 1.96609 12.4667 2.26667V7.95827C12.8565 7.99378 13.2343 8.06367 13.6 8.16793V2.26667C13.6 1.66551 13.3612 1.08897 12.9361 0.663891C12.511 0.238809 11.9345 0 11.3333 0H2.26667C1.66551 0 1.08897 0.238809 0.663891 0.663891C0.238809 1.08897 0 1.66551 0 2.26667V15.8667C0 16.4678 0.238809 17.0444 0.663891 17.4694C1.08897 17.8945 1.66551 18.1333 2.26667 18.1333H7.09127C6.80259 17.7838 6.55291 17.4037 6.34667 17H2.26667C1.96609 17 1.67782 16.8806 1.46528 16.6681C1.25274 16.4555 1.13333 16.1672 1.13333 15.8667H5.90127C5.79653 15.4962 5.72634 15.1168 5.6916 14.7333H1.13333V2.26667C1.13333 1.96609 1.25274 1.67782 1.46528 1.46528C1.67782 1.25274 1.96609 1.13333 2.26667 1.13333ZM3.4 2.26667C3.09942 2.26667 2.81115 2.38607 2.59861 2.59861C2.38607 2.81115 2.26667 3.09942 2.26667 3.4V4.53333C2.26667 4.83391 2.38607 5.12218 2.59861 5.33472C2.81115 5.54726 3.09942 5.66667 3.4 5.66667H10.2C10.5006 5.66667 10.7888 5.54726 11.0014 5.33472C11.2139 5.12218 11.3333 4.83391 11.3333 4.53333V3.4C11.3333 3.09942 11.2139 2.81115 11.0014 2.59861C10.7888 2.38607 10.5006 2.26667 10.2 2.26667H3.4ZM10.2 3.4V4.53333H3.4V3.4H10.2ZM17 14.1667C17 15.5193 16.4627 16.8165 15.5062 17.7729C14.5498 18.7293 13.2526 19.2667 11.9 19.2667C10.5474 19.2667 9.25019 18.7293 8.29376 17.7729C7.33732 16.8165 6.8 15.5193 6.8 14.1667C6.8 12.8141 7.33732 11.5169 8.29376 10.5604C9.25019 9.60399 10.5474 9.06667 11.9 9.06667C13.2526 9.06667 14.5498 9.60399 15.5062 10.5604C16.4627 11.5169 17 12.8141 17 14.1667ZM11.356 11.9385C11.2826 11.8879 11.1972 11.8573 11.1083 11.85C11.0194 11.8426 10.9301 11.8587 10.8494 11.8966C10.7836 11.9259 10.724 11.9674 10.6737 12.019C10.6209 12.0722 10.5792 12.1354 10.551 12.2048C10.5228 12.2743 10.5087 12.3486 10.5094 12.4236V15.9086C10.5085 15.9837 10.5226 16.0583 10.5508 16.128C10.579 16.1976 10.6208 16.261 10.6737 16.3143C10.726 16.3652 10.7861 16.4072 10.8517 16.439C10.9667 16.4917 11.0971 16.4998 11.2177 16.4617C11.2701 16.4448 11.3197 16.4203 11.3651 16.3891L13.9672 14.6132C14.0463 14.561 14.1101 14.4886 14.1519 14.4035C14.1946 14.3177 14.2166 14.223 14.216 14.1272C14.2154 14.0313 14.1923 13.9369 14.1485 13.8516C14.1037 13.7681 14.0386 13.6972 13.9593 13.6453L11.356 11.9385Z" fill="black"/>
</svg>
