<svg width="54" height="54" viewBox="0 0 54 54" fill="none" xmlns="http://www.w3.org/2000/svg">
<g clip-path="url(#clip0_2910_3300)">
<path d="M0 27C0 35.5558 3.97952 43.1821 10.1889 48.1287C14.801 51.8042 20.6442 54 27 54C33.3558 54 39.199 51.8042 43.8111 48.1287C50.0205 43.1821 54 35.5558 54 27C54 12.0885 41.9115 0 27 0C12.0885 0 0 12.0885 0 27Z" fill="#CED5D8"/>
<path d="M26.9981 32.3163C20.7299 32.3163 15.6485 27.2349 15.6485 20.9667C15.6485 14.6986 20.7299 9.61719 26.9981 9.61719C33.2663 9.61719 38.3477 14.6986 38.3477 20.9667C38.3477 27.2349 33.2663 32.3163 26.9981 32.3163Z" fill="#A6AFB2"/>
<path d="M9.28125 47.3483C13.9219 51.4688 20.3011 54 27 54C33.6989 54 39.6562 51.6797 44.7188 47.3483C42.4176 40.2114 35.3554 35.0156 27 35.0156C18.6446 35.0156 11.5824 40.2114 9.28125 47.3483Z" fill="#A6AFB2"/>
</g>
<defs>
<clipPath id="clip0_2910_3300">
<rect width="54" height="54" fill="white" transform="matrix(-1 0 0 1 54 0)"/>
</clipPath>
</defs>
</svg>
