<svg width="15" height="13" viewBox="0 0 15 13" fill="none" xmlns="http://www.w3.org/2000/svg">
<path d="M14.4421 0H1.2635C1.147 0 1.03526 0.0464341 0.952882 0.129087C0.8705 0.21174 0.824219 0.323842 0.824219 0.440731V1.17675C0.824869 1.3869 0.908603 1.58821 1.05704 1.73648L6.09565 6.86658V11.362L6.97422 11.697V6.61096C6.97455 6.55296 6.96347 6.49546 6.94161 6.44176C6.91975 6.38806 6.88754 6.33922 6.84682 6.29804L1.70279 1.14149V0.881461H14.0028V1.15031L8.87632 6.29804C8.83242 6.33774 8.79696 6.38591 8.77205 6.43967C8.74714 6.49344 8.7333 6.5517 8.73136 6.61096V12.433L9.60993 12.7812V6.83133L14.6485 1.76292C14.7236 1.68794 14.7829 1.59858 14.8229 1.50016C14.8629 1.40174 14.8828 1.29625 14.8814 1.18997V0.440731C14.8814 0.323842 14.8351 0.21174 14.7527 0.129087C14.6703 0.0464341 14.5586 0 14.4421 0Z" fill="black"/>
</svg>
