<svg width="18" height="18" viewBox="0 0 18 18" fill="none" xmlns="http://www.w3.org/2000/svg">
<path d="M1 7.22248V16.1117C1 16.3474 1.09364 16.5734 1.26031 16.7401C1.42698 16.9068 1.65304 17.0004 1.88875 17.0004H16.1113C16.347 17.0004 16.573 16.9068 16.7397 16.7401C16.9064 16.5734 17 16.3474 17 16.1117V7.22248M1 7.22248H17M1 7.22248V3.66707C1 3.43136 1.09364 3.2053 1.26031 3.03863C1.42698 2.87196 1.65304 2.77832 1.88875 2.77832H16.1113C16.347 2.77832 16.573 2.87196 16.7397 3.03863C16.9064 3.2053 17 3.43136 17 3.66707V7.22248" stroke="black" stroke-width="0.853333" stroke-linecap="round" stroke-linejoin="round"/>
<path d="M12.5561 1V4.55541M5.44531 1V4.55541" stroke="black" stroke-width="0.853333" stroke-linecap="round" stroke-linejoin="round"/>
</svg>
