<svg width="209" height="167" viewBox="0 0 209 167" fill="none" xmlns="http://www.w3.org/2000/svg">
<path d="M130.641 0C132.268 0 133.829 0.780891 134.805 2.08238C146.096 17.1471 160.217 26.4527 178.243 38.3613C179.935 39.4675 181.659 40.6389 183.449 41.8102C192.852 48.0574 198.318 58.6319 198.318 69.8247C198.318 79.1303 194.641 87.5574 188.622 93.707H72.6596C66.6727 87.5249 62.9635 79.0978 62.9635 69.8247C62.9635 58.6319 68.3972 48.0574 77.833 41.8102C79.59 40.6389 81.347 39.5001 83.0389 38.3613C101.064 26.4527 115.186 17.1471 126.476 2.08238C127.452 0.780891 129.014 0 130.641 0ZM94.1991 166.59V143.163C94.1991 138.836 90.7177 135.354 86.3902 135.354C82.0628 135.354 78.5813 138.836 78.5813 143.163V166.59H62.9635C57.2044 166.59 52.5516 161.937 52.5516 156.178V114.531C52.5516 108.772 57.2044 104.119 62.9635 104.119H198.318C204.077 104.119 208.73 108.772 208.73 114.531V156.178C208.73 161.937 204.077 166.59 198.318 166.59H182.7V143.163C182.7 138.836 179.219 135.354 174.891 135.354C170.564 135.354 167.082 138.836 167.082 143.163V166.59H146.259V147.719C146.259 141.537 143.525 135.68 138.775 131.71L130.641 124.943L122.506 131.71C117.756 135.68 115.023 141.537 115.023 147.719V166.59H94.1991ZM23.3983 1.69193C24.2973 1.01103 25.3942 0.642536 26.5219 0.642536C27.6496 0.642536 28.7465 1.01103 29.6455 1.69193L34.8514 5.59639C45.9791 13.9584 52.5516 27.0709 52.5516 40.9968V41.6475H0.492188V40.9968C0.492188 27.0709 7.06469 13.9584 18.1924 5.59639L23.3983 1.69193ZM0.492188 52.0594H52.5516V96.5052C46.337 100.117 42.1397 106.819 42.1397 114.531V156.178C42.1397 159.302 42.823 162.23 44.0269 164.898C41.8794 166.004 39.4717 166.59 36.9338 166.59H16.11C7.48767 166.59 0.492188 159.595 0.492188 150.972V57.2654V52.0594Z" fill="#21ABA5"/>
</svg>
