<svg width="18" height="16" viewBox="0 0 18 16" fill="none" xmlns="http://www.w3.org/2000/svg">
<path d="M2.07759 14.121H3.41315L12.5746 5.57032L11.239 4.3238L2.07759 12.8745V14.121ZM0.203125 15.8705V12.1528L12.5746 0.627981C12.762 0.467611 12.9692 0.343688 13.196 0.256213C13.4228 0.168738 13.6608 0.125 13.9101 0.125C14.1601 0.125 14.4022 0.168738 14.6365 0.256213C14.8708 0.343688 15.0739 0.4749 15.2457 0.64985L16.5344 1.8745C16.7218 2.03487 16.8587 2.2244 16.9449 2.44309C17.0311 2.66178 17.0739 2.88046 17.0733 3.09915C17.0733 3.33242 17.0305 3.5549 16.9449 3.76659C16.8593 3.97828 16.7225 4.1713 16.5344 4.34567L4.18636 15.8705H0.203125ZM11.8951 4.958L11.239 4.3238L12.5746 5.57032L11.8951 4.958Z" fill="#6A6A6A"/>
</svg>
