<svg width="16" height="17" viewBox="0 0 16 17"  xmlns="http://www.w3.org/2000/svg">
<path d="M11.5556 10.2C12.7009 10.2001 13.8019 10.6229 14.6291 11.3804C15.4563 12.1378 15.9459 13.1714 15.9956 14.2656L16 14.45V15.3C16.0001 15.7289 15.8308 16.142 15.5258 16.4565C15.2208 16.771 14.8028 16.9636 14.3556 16.9958L14.2222 17H1.77778C1.32927 17.0001 0.897274 16.8382 0.568402 16.5465C0.239529 16.2549 0.0380829 15.8552 0.00444455 15.4275L0 15.3V14.45C6.61711e-05 13.3548 0.442259 12.3019 1.23436 11.5109C2.02647 10.7199 3.10733 10.2518 4.25156 10.2043L4.44444 10.2H11.5556ZM8 0C9.17874 0 10.3092 0.447767 11.1427 1.2448C11.9762 2.04183 12.4444 3.12283 12.4444 4.25C12.4444 5.37717 11.9762 6.45817 11.1427 7.2552C10.3092 8.05223 9.17874 8.5 8 8.5C6.82126 8.5 5.6908 8.05223 4.8573 7.2552C4.02381 6.45817 3.55556 5.37717 3.55556 4.25C3.55556 3.12283 4.02381 2.04183 4.8573 1.2448C5.6908 0.447767 6.82126 0 8 0Z" fill="currentColor"/>
</svg>
