<svg width="16" height="18" viewBox="0 0 16 18" fill="none" xmlns="http://www.w3.org/2000/svg">
<path d="M7.20431 0.183098C7.14754 0.125815 7.07964 0.0801247 7.00456 0.0486921C6.92948 0.0172596 6.84873 0.000714651 6.76702 2.26448e-05C6.68531 -0.000669362 6.60427 0.0145054 6.52864 0.0446616C6.45302 0.0748178 6.38431 0.119351 6.32653 0.175664C6.26875 0.231977 6.22305 0.29894 6.19211 0.372648C6.16117 0.446355 6.1456 0.525331 6.14631 0.604966C6.14702 0.684601 6.16399 0.763301 6.19625 0.836473C6.2285 0.909645 6.27538 0.975825 6.33415 1.03115C6.86414 1.54767 6.51286 2.50685 5.79984 2.70506C2.45086 3.63605 0 6.64045 0 10.2032C0 14.5094 3.58154 18 8 18C12.4185 18 16 14.5094 16 10.2032V10.1552C15.9982 9.84334 15.7298 9.60344 15.4105 9.60344H15.3575C15.0271 9.60344 14.7692 9.88053 14.7692 10.2032C14.7692 13.8467 11.7385 16.8005 8 16.8005C4.26154 16.8005 1.23077 13.8467 1.23077 10.2032C1.23077 7.30494 3.14807 4.84342 5.81413 3.95746C6.47128 3.73909 6.83007 4.49781 6.33415 4.98113C6.22206 5.09425 6.16003 5.24575 6.16143 5.403C6.16283 5.56025 6.22755 5.71068 6.34165 5.82188C6.45575 5.93308 6.61009 5.99615 6.77145 5.99752C6.9328 5.99889 7.08825 5.93844 7.20431 5.82919L9.66585 3.43017C9.78121 3.3177 9.84602 3.16517 9.84602 3.00614C9.84602 2.84711 9.78121 2.69459 9.66585 2.58212L7.20431 0.183098ZM12.1274 7.38015C12.2428 7.49262 12.3076 7.64514 12.3076 7.80418C12.3076 7.96321 12.2428 8.11573 12.1274 8.2282L8.43508 11.8267C8.31968 11.9392 8.16318 12.0023 8 12.0023C7.83682 12.0023 7.68033 11.9392 7.56492 11.8267L5.71877 10.0275C5.60667 9.91435 5.54465 9.76285 5.54605 9.6056C5.54745 9.44835 5.61217 9.29792 5.72627 9.18672C5.84036 9.07552 5.99471 9.01244 6.15606 9.01108C6.31741 9.00971 6.47286 9.07016 6.58892 9.17941C7.37404 9.94459 8.62596 9.94459 9.41108 9.17941L11.2572 7.38015C11.3726 7.26771 11.5291 7.20455 11.6923 7.20455C11.8555 7.20455 12.012 7.26771 12.1274 7.38015Z" fill="black"/>
</svg>
