<svg width="13" height="13" viewBox="0 0 13 13" fill="none" xmlns="http://www.w3.org/2000/svg">
<g opacity="0.7">
<path d="M5.72655 10.1328C2.92055 10.1328 0.660156 7.8724 0.660156 5.06639C0.660156 2.26039 2.92055 0 5.72655 0C8.53255 0 10.7929 2.26039 10.7929 5.06639C10.7929 7.8724 8.53255 10.1328 5.72655 10.1328ZM5.72655 0.779445C3.34924 0.779445 1.4396 2.68909 1.4396 5.06639C1.4396 7.4437 3.34924 9.35334 5.72655 9.35334C8.10386 9.35334 10.0135 7.4437 10.0135 5.06639C10.0135 2.68909 8.10386 0.779445 5.72655 0.779445Z" fill="black"/>
<path d="M9.50029 8.28809L13 11.7878L12.4489 12.3389L8.94922 8.83915L9.50029 8.28809Z" fill="black"/>
</g>
</svg>
