<svg width="17" height="17" viewBox="0 0 17 17" fill="none" xmlns="http://www.w3.org/2000/svg">
<path d="M8.04426 10.1071C8.99421 10.1071 9.7643 9.33698 9.7643 8.38703C9.7643 7.43708 8.99421 6.66699 8.04426 6.66699C7.09431 6.66699 6.32422 7.43708 6.32422 8.38703C6.32422 9.33698 7.09431 10.1071 8.04426 10.1071Z" stroke="black" stroke-width="1.07216"/>
<path d="M2.36574 3.12327L2.68825 2.56426C2.56163 2.49121 2.41395 2.46334 2.26941 2.48522C2.12488 2.50709 1.99206 2.57742 1.89273 2.68466L2.36574 3.12327ZM0.646559 6.10238L0.0299247 5.91145C-0.0132119 6.05116 -0.0075998 6.20139 0.0458411 6.33749C0.0992819 6.47359 0.19738 6.5875 0.324052 6.66053L0.646559 6.10238ZM0.644839 10.6699L0.322331 10.1109C0.195633 10.1841 0.09759 10.2982 0.0442987 10.4345C-0.00899258 10.5708 -0.0143646 10.7211 0.0290645 10.8609L0.644839 10.6699ZM2.36488 13.6491L1.89187 14.0877C1.9912 14.1949 2.12402 14.2652 2.26855 14.2871C2.41309 14.309 2.56077 14.2811 2.68739 14.2081L2.36488 13.6491ZM6.32097 15.9324H5.67596C5.67596 16.2334 5.88494 16.494 6.17821 16.5611L6.32097 15.9324ZM9.76191 15.9341L9.90554 16.5637C10.0481 16.5311 10.1754 16.4511 10.2665 16.3367C10.3576 16.2223 10.4071 16.0804 10.4069 15.9341H9.76191ZM13.7189 13.6499L13.3964 14.2089C13.523 14.282 13.6707 14.3098 13.8152 14.288C13.9597 14.2661 14.0925 14.1958 14.1919 14.0885L13.7189 13.6499ZM15.4372 10.6691L16.0538 10.86C16.097 10.7203 16.0913 10.5701 16.0379 10.434C15.9845 10.2979 15.8864 10.184 15.7597 10.1109L15.4372 10.6691ZM15.4389 6.10152L15.7614 6.66053C15.8881 6.58733 15.9862 6.47322 16.0394 6.33695C16.0927 6.20067 16.0981 6.05033 16.0547 5.91059L15.4389 6.10152ZM13.7189 3.12155L14.1919 2.6838C14.0925 2.57656 13.9597 2.50623 13.8152 2.48436C13.6707 2.46248 13.523 2.49035 13.3964 2.5634L13.7189 3.12155ZM9.76277 0.839916H10.4078C10.4078 0.693834 10.3581 0.552091 10.267 0.437883C10.176 0.323676 10.0488 0.243769 9.9064 0.211241L9.76277 0.839916ZM6.32269 0.838196L6.17907 0.208661C6.03651 0.241222 5.90925 0.321255 5.81815 0.435639C5.72705 0.550023 5.67752 0.691967 5.67768 0.838196H6.32269ZM1.26319 6.2933C1.57621 5.27583 2.11443 4.34195 2.83789 3.56102L1.89187 2.6838C1.03696 3.60658 0.40086 4.71005 0.0307846 5.91231L1.26319 6.2933ZM1.89789 11.9342C1.6324 11.4749 1.41894 10.9874 1.26147 10.4807L0.0299247 10.8617C0.215555 11.4604 0.467377 12.0364 0.780722 12.5792L1.89789 11.9342ZM2.83875 13.2122C2.4786 12.8225 2.16303 12.3938 1.89789 11.9342L0.780722 12.5792C1.09384 13.122 1.46652 13.6274 1.89187 14.0877L2.83875 13.2122ZM9.61915 15.3063C8.58141 15.5425 7.5038 15.5419 6.46632 15.3046L6.17907 16.5619C7.40555 16.8427 8.67953 16.8436 9.9064 16.5645L9.61915 15.3063ZM14.8223 10.4799C14.5093 11.4974 13.971 12.4312 13.2476 13.2122L14.1936 14.0894C15.0485 13.1666 15.6846 12.0631 16.0547 10.8609L14.8223 10.4799ZM14.1876 4.83901C14.4576 5.31087 14.6698 5.79535 14.824 6.29244L16.0555 5.91145C15.8699 5.31283 15.6181 4.73678 15.3047 4.19399L14.1876 4.83901ZM13.2459 3.56102C13.5985 3.94201 13.9149 4.36944 14.1867 4.83901L15.3047 4.19399C14.9914 3.65109 14.6175 3.14399 14.1919 2.6838L13.2459 3.56102ZM6.46546 1.46687C7.5032 1.23069 8.58081 1.23127 9.61829 1.46859L9.9064 0.211241C8.67992 -0.0695402 7.40508 -0.070422 6.17821 0.208661L6.46546 1.46687ZM6.96685 2.42837V0.837336H5.67682V2.42837H6.96685ZM4.06514 3.35891L2.68825 2.56426L2.04323 3.68142L3.41926 4.47608L4.06514 3.35891ZM1.70008 9.318L0.323191 10.1127L0.968207 11.2298L2.3451 10.4352L1.70008 9.318ZM2.3451 6.33802L0.969067 5.54423L0.324052 6.66225L1.70008 7.45605L2.3451 6.33802ZM6.96771 15.9333V14.3448H5.67768V15.9333H6.96771ZM3.42012 12.2971L2.04323 13.0918L2.68825 14.2098L4.06428 13.4143L3.42012 12.2971ZM14.0422 13.0918L12.6653 12.2971L12.0203 13.4143L13.3964 14.2089L14.0422 13.0918ZM10.4078 15.935V14.3448H9.11776V15.9358L10.4078 15.935ZM15.1173 5.54337L13.7404 6.33802L14.3854 7.45605L15.7614 6.66053L15.1173 5.54337ZM15.7606 10.1118L14.3854 9.31713L13.7404 10.4352L15.1164 11.229L15.7606 10.1118ZM10.4078 2.42837V0.839916H9.11776V2.42837H10.4078ZM13.3972 2.56426L12.0203 3.35891L12.6653 4.47694L14.0422 3.68142L13.3972 2.56426ZM9.11776 2.42837C9.11776 4.24904 11.0889 5.3877 12.6653 4.47694L12.0203 3.35891C11.8569 3.45325 11.6716 3.50292 11.4829 3.50294C11.2943 3.50296 11.1089 3.45333 10.9455 3.35903C10.7821 3.26473 10.6464 3.12909 10.552 2.96573C10.4576 2.80236 10.4079 2.61704 10.4078 2.42837H9.11776ZM13.7404 6.33802C12.1639 7.24879 12.1639 9.5244 13.7404 10.4352L14.3854 9.31713C14.222 9.22278 14.0863 9.08707 13.9919 8.92365C13.8976 8.76023 13.8479 8.57486 13.8479 8.38616C13.8479 8.19747 13.8976 8.01209 13.9919 7.84867C14.0863 7.68526 14.222 7.54955 14.3854 7.45519L13.7404 6.33802ZM12.6653 12.2971C11.0889 11.3863 9.11776 12.5241 9.11776 14.3448H10.4078C10.4079 14.1561 10.4576 13.9708 10.552 13.8075C10.6464 13.6441 10.7821 13.5085 10.9455 13.4142C11.1089 13.3199 11.2943 13.2702 11.4829 13.2702C11.6716 13.2703 11.8569 13.3199 12.0203 13.4143L12.6653 12.2971ZM6.96771 14.3448C6.96771 12.5241 4.99654 11.3863 3.42012 12.2971L4.06428 13.4143C4.22767 13.3199 4.41387 13.2703 4.60254 13.2702C4.7912 13.2702 4.97656 13.3199 5.13997 13.4142C5.30338 13.5085 5.43909 13.6441 5.53348 13.8075C5.62787 13.9708 5.6776 14.1561 5.67768 14.3448H6.96771ZM2.3451 10.4352C3.92152 9.5244 3.92152 7.24879 2.3451 6.33802L1.70008 7.45605C1.8635 7.55041 1.99919 7.68611 2.09354 7.84953C2.18788 8.01295 2.23755 8.19833 2.23755 8.38702C2.23755 8.57572 2.18788 8.76109 2.09354 8.92451C1.99919 9.08793 1.8635 9.22364 1.70008 9.318L2.3451 10.4352ZM5.67768 2.42837C5.6776 2.61704 5.62787 2.80236 5.53348 2.96573C5.43909 3.12909 5.30338 3.26473 5.13997 3.35903C4.97656 3.45333 4.7912 3.50296 4.60254 3.50294C4.41387 3.50292 4.22853 3.45325 4.06514 3.35891L3.42012 4.47694C4.99654 5.38684 6.96771 4.24904 6.96771 2.42837H5.67768Z" fill="black"/>
</svg>
