<svg width="15" height="19" viewBox="0 0 15 19" fill="none" xmlns="http://www.w3.org/2000/svg">
<path d="M1.4437 16.0366C1.4437 17.1391 2.34575 18.0412 3.44827 18.0412H11.4666C12.5691 18.0412 13.4712 17.1391 13.4712 16.0366V6.01373C13.4712 4.91122 12.5691 4.00916 11.4666 4.00916H3.44827C2.34575 4.00916 1.4437 4.91122 1.4437 6.01373V16.0366ZM13.4712 1.00229H10.9654L10.2538 0.290664C10.0734 0.110252 9.81281 0 9.55221 0H5.36264C5.10205 0 4.84145 0.110252 4.66104 0.290664L3.94942 1.00229H1.4437C0.892436 1.00229 0.441406 1.45332 0.441406 2.00458C0.441406 2.55584 0.892436 3.00687 1.4437 3.00687H13.4712C14.0224 3.00687 14.4734 2.55584 14.4734 2.00458C14.4734 1.45332 14.0224 1.00229 13.4712 1.00229Z" fill="#6A6A6A"/>
</svg>
